<svg width="169" height="14" viewBox="0 0 169 14" fill="none" xmlns="http://www.w3.org/2000/svg">
<path d="M5.544 11.042C4.844 11.042 4.19533 10.916 3.598 10.664C3.00067 10.412 2.478 10.062 2.03 9.614C1.582 9.15667 1.232 8.62933 0.98 8.032C0.737333 7.43467 0.616 6.79067 0.616 6.1C0.616 5.40933 0.742 4.76533 0.994 4.168C1.246 3.57067 1.596 3.048 2.044 2.6C2.492 2.14267 3.01467 1.788 3.612 1.536C4.21867 1.284 4.872 1.158 5.572 1.158C6.272 1.158 6.92067 1.284 7.518 1.536C8.12467 1.77867 8.64733 2.124 9.086 2.572C9.534 3.02 9.87933 3.54267 10.122 4.14C10.374 4.728 10.5 5.372 10.5 6.072C10.5 6.772 10.374 7.42533 10.122 8.032C9.87 8.62933 9.51533 9.15667 9.058 9.614C8.61 10.062 8.08733 10.412 7.49 10.664C6.89267 10.916 6.244 11.042 5.544 11.042ZM5.53 10.272C6.12733 10.272 6.678 10.1647 7.182 9.95C7.686 9.73533 8.12467 9.44133 8.498 9.068C8.88067 8.68533 9.17467 8.23733 9.38 7.724C9.58533 7.21067 9.688 6.66 9.688 6.072C9.688 5.484 9.58533 4.938 9.38 4.434C9.17467 3.93 8.88533 3.49133 8.512 3.118C8.148 2.74467 7.714 2.45533 7.21 2.25C6.71533 2.03533 6.16933 1.928 5.572 1.928C4.97467 1.928 4.41933 2.03533 3.906 2.25C3.402 2.45533 2.96333 2.74933 2.59 3.132C2.226 3.51467 1.93667 3.958 1.722 4.462C1.51667 4.966 1.414 5.512 1.414 6.1C1.414 6.688 1.51667 7.234 1.722 7.738C1.92733 8.242 2.21667 8.68533 2.59 9.068C2.96333 9.45067 3.402 9.74933 3.906 9.964C4.41 10.1693 4.95133 10.272 5.53 10.272ZM5.698 8.956C5.12867 8.956 4.62 8.83467 4.172 8.592C3.724 8.34933 3.374 8.01333 3.122 7.584C2.87 7.15467 2.744 6.66 2.744 6.1C2.744 5.54 2.87 5.04533 3.122 4.616C3.374 4.18667 3.724 3.85067 4.172 3.608C4.62 3.36533 5.12867 3.244 5.698 3.244C6.23 3.244 6.69667 3.356 7.098 3.58C7.50867 3.79467 7.82133 4.08867 8.036 4.462L7.014 5.134C6.85533 4.89133 6.664 4.714 6.44 4.602C6.216 4.49 5.964 4.434 5.684 4.434C5.38533 4.434 5.11467 4.504 4.872 4.644C4.63867 4.77467 4.44733 4.966 4.298 5.218C4.158 5.46067 4.088 5.75467 4.088 6.1C4.088 6.44533 4.158 6.744 4.298 6.996C4.44733 7.23867 4.63867 7.43 4.872 7.57C5.11467 7.70067 5.38533 7.766 5.684 7.766C5.964 7.766 6.216 7.71 6.44 7.598C6.664 7.486 6.85533 7.30867 7.014 7.066L8.036 7.71C7.82133 8.09267 7.50867 8.396 7.098 8.62C6.69667 8.844 6.23 8.956 5.698 8.956ZM15.4744 11V9.782L19.3664 6.086C19.693 5.778 19.9357 5.50733 20.0944 5.274C20.253 5.04067 20.3557 4.826 20.4024 4.63C20.4584 4.42467 20.4864 4.23333 20.4864 4.056C20.4864 3.608 20.3324 3.26267 20.0244 3.02C19.7164 2.768 19.2637 2.642 18.6664 2.642C18.1904 2.642 17.7564 2.726 17.3644 2.894C16.9817 3.062 16.6504 3.31867 16.3704 3.664L15.0964 2.684C15.479 2.17067 15.9924 1.774 16.6364 1.494C17.2897 1.20467 18.0177 1.06 18.8204 1.06C19.5297 1.06 20.1457 1.17667 20.6684 1.41C21.2004 1.634 21.6064 1.956 21.8864 2.376C22.1757 2.796 22.3204 3.29533 22.3204 3.874C22.3204 4.19133 22.2784 4.50867 22.1944 4.826C22.1104 5.134 21.9517 5.46067 21.7184 5.806C21.485 6.15133 21.1444 6.53867 20.6964 6.968L17.3504 10.146L16.9724 9.46H22.6984V11H15.4744ZM27.8368 11.14C27.0621 11.14 26.3621 10.944 25.7368 10.552C25.1208 10.16 24.6355 9.59067 24.2808 8.844C23.9261 8.088 23.7488 7.17333 23.7488 6.1C23.7488 5.02667 23.9261 4.11667 24.2808 3.37C24.6355 2.614 25.1208 2.04 25.7368 1.648C26.3621 1.256 27.0621 1.06 27.8368 1.06C28.6208 1.06 29.3208 1.256 29.9368 1.648C30.5528 2.04 31.0381 2.614 31.3928 3.37C31.7568 4.11667 31.9388 5.02667 31.9388 6.1C31.9388 7.17333 31.7568 8.088 31.3928 8.844C31.0381 9.59067 30.5528 10.16 29.9368 10.552C29.3208 10.944 28.6208 11.14 27.8368 11.14ZM27.8368 9.558C28.2941 9.558 28.6908 9.43667 29.0268 9.194C29.3628 8.942 29.6241 8.55933 29.8108 8.046C30.0068 7.53267 30.1048 6.884 30.1048 6.1C30.1048 5.30667 30.0068 4.658 29.8108 4.154C29.6241 3.64067 29.3628 3.26267 29.0268 3.02C28.6908 2.768 28.2941 2.642 27.8368 2.642C27.3981 2.642 27.0061 2.768 26.6608 3.02C26.3248 3.26267 26.0588 3.64067 25.8628 4.154C25.6761 4.658 25.5828 5.30667 25.5828 6.1C25.5828 6.884 25.6761 7.53267 25.8628 8.046C26.0588 8.55933 26.3248 8.942 26.6608 9.194C27.0061 9.43667 27.3981 9.558 27.8368 9.558ZM37.2567 11.14C36.4821 11.14 35.7821 10.944 35.1567 10.552C34.5407 10.16 34.0554 9.59067 33.7007 8.844C33.3461 8.088 33.1687 7.17333 33.1687 6.1C33.1687 5.02667 33.3461 4.11667 33.7007 3.37C34.0554 2.614 34.5407 2.04 35.1567 1.648C35.7821 1.256 36.4821 1.06 37.2567 1.06C38.0407 1.06 38.7407 1.256 39.3567 1.648C39.9727 2.04 40.4581 2.614 40.8127 3.37C41.1767 4.11667 41.3587 5.02667 41.3587 6.1C41.3587 7.17333 41.1767 8.088 40.8127 8.844C40.4581 9.59067 39.9727 10.16 39.3567 10.552C38.7407 10.944 38.0407 11.14 37.2567 11.14ZM37.2567 9.558C37.7141 9.558 38.1107 9.43667 38.4467 9.194C38.7827 8.942 39.0441 8.55933 39.2307 8.046C39.4267 7.53267 39.5247 6.884 39.5247 6.1C39.5247 5.30667 39.4267 4.658 39.2307 4.154C39.0441 3.64067 38.7827 3.26267 38.4467 3.02C38.1107 2.768 37.7141 2.642 37.2567 2.642C36.8181 2.642 36.4261 2.768 36.0807 3.02C35.7447 3.26267 35.4787 3.64067 35.2827 4.154C35.0961 4.658 35.0027 5.30667 35.0027 6.1C35.0027 6.884 35.0961 7.53267 35.2827 8.046C35.4787 8.55933 35.7447 8.942 36.0807 9.194C36.4261 9.43667 36.8181 9.558 37.2567 9.558ZM44.143 11V1.9L44.941 2.726H42.071V1.2H45.963V11H44.143ZM48.061 7.836V6.38H51.911V7.836H48.061ZM52.9627 11V9.782L56.8547 6.086C57.1813 5.778 57.424 5.50733 57.5827 5.274C57.7413 5.04067 57.844 4.826 57.8907 4.63C57.9467 4.42467 57.9747 4.23333 57.9747 4.056C57.9747 3.608 57.8207 3.26267 57.5127 3.02C57.2047 2.768 56.752 2.642 56.1547 2.642C55.6787 2.642 55.2447 2.726 54.8527 2.894C54.47 3.062 54.1387 3.31867 53.8587 3.664L52.5847 2.684C52.9673 2.17067 53.4807 1.774 54.1247 1.494C54.778 1.20467 55.506 1.06 56.3087 1.06C57.018 1.06 57.634 1.17667 58.1567 1.41C58.6887 1.634 59.0947 1.956 59.3747 2.376C59.664 2.796 59.8087 3.29533 59.8087 3.874C59.8087 4.19133 59.7667 4.50867 59.6827 4.826C59.5987 5.134 59.44 5.46067 59.2067 5.806C58.9733 6.15133 58.6327 6.53867 58.1847 6.968L54.8387 10.146L54.4607 9.46H60.1867V11H52.9627ZM65.3251 11.14C64.5504 11.14 63.8504 10.944 63.2251 10.552C62.6091 10.16 62.1238 9.59067 61.7691 8.844C61.4144 8.088 61.2371 7.17333 61.2371 6.1C61.2371 5.02667 61.4144 4.11667 61.7691 3.37C62.1238 2.614 62.6091 2.04 63.2251 1.648C63.8504 1.256 64.5504 1.06 65.3251 1.06C66.1091 1.06 66.8091 1.256 67.4251 1.648C68.0411 2.04 68.5264 2.614 68.8811 3.37C69.2451 4.11667 69.4271 5.02667 69.4271 6.1C69.4271 7.17333 69.2451 8.088 68.8811 8.844C68.5264 9.59067 68.0411 10.16 67.4251 10.552C66.8091 10.944 66.1091 11.14 65.3251 11.14ZM65.3251 9.558C65.7824 9.558 66.1791 9.43667 66.5151 9.194C66.8511 8.942 67.1124 8.55933 67.2991 8.046C67.4951 7.53267 67.5931 6.884 67.5931 6.1C67.5931 5.30667 67.4951 4.658 67.2991 4.154C67.1124 3.64067 66.8511 3.26267 66.5151 3.02C66.1791 2.768 65.7824 2.642 65.3251 2.642C64.8864 2.642 64.4944 2.768 64.1491 3.02C63.8131 3.26267 63.5471 3.64067 63.3511 4.154C63.1644 4.658 63.0711 5.30667 63.0711 6.1C63.0711 6.884 63.1644 7.53267 63.3511 8.046C63.5471 8.55933 63.8131 8.942 64.1491 9.194C64.4944 9.43667 64.8864 9.558 65.3251 9.558ZM70.5173 11V9.782L74.4093 6.086C74.736 5.778 74.9787 5.50733 75.1373 5.274C75.296 5.04067 75.3987 4.826 75.4453 4.63C75.5013 4.42467 75.5293 4.23333 75.5293 4.056C75.5293 3.608 75.3753 3.26267 75.0673 3.02C74.7593 2.768 74.3067 2.642 73.7093 2.642C73.2333 2.642 72.7993 2.726 72.4073 2.894C72.0247 3.062 71.6933 3.31867 71.4133 3.664L70.1393 2.684C70.522 2.17067 71.0353 1.774 71.6793 1.494C72.3327 1.20467 73.0607 1.06 73.8633 1.06C74.5727 1.06 75.1887 1.17667 75.7113 1.41C76.2433 1.634 76.6493 1.956 76.9293 2.376C77.2187 2.796 77.3633 3.29533 77.3633 3.874C77.3633 4.19133 77.3213 4.50867 77.2373 4.826C77.1533 5.134 76.9947 5.46067 76.7613 5.806C76.528 6.15133 76.1873 6.53867 75.7393 6.968L72.3933 10.146L72.0153 9.46H77.7413V11H70.5173ZM82.8798 11.14C82.1051 11.14 81.4051 10.944 80.7798 10.552C80.1638 10.16 79.6784 9.59067 79.3238 8.844C78.9691 8.088 78.7918 7.17333 78.7918 6.1C78.7918 5.02667 78.9691 4.11667 79.3238 3.37C79.6784 2.614 80.1638 2.04 80.7798 1.648C81.4051 1.256 82.1051 1.06 82.8798 1.06C83.6638 1.06 84.3638 1.256 84.9798 1.648C85.5958 2.04 86.0811 2.614 86.4358 3.37C86.7998 4.11667 86.9818 5.02667 86.9818 6.1C86.9818 7.17333 86.7998 8.088 86.4358 8.844C86.0811 9.59067 85.5958 10.16 84.9798 10.552C84.3638 10.944 83.6638 11.14 82.8798 11.14ZM82.8798 9.558C83.3371 9.558 83.7338 9.43667 84.0698 9.194C84.4058 8.942 84.6671 8.55933 84.8538 8.046C85.0498 7.53267 85.1478 6.884 85.1478 6.1C85.1478 5.30667 85.0498 4.658 84.8538 4.154C84.6671 3.64067 84.4058 3.26267 84.0698 3.02C83.7338 2.768 83.3371 2.642 82.8798 2.642C82.4411 2.642 82.0491 2.768 81.7038 3.02C81.3678 3.26267 81.1018 3.64067 80.9058 4.154C80.7191 4.658 80.6258 5.30667 80.6258 6.1C80.6258 6.884 80.7191 7.53267 80.9058 8.046C81.1018 8.55933 81.3678 8.942 81.7038 9.194C82.0491 9.43667 82.4411 9.558 82.8798 9.558ZM97.3448 11.14C96.5982 11.14 95.9028 11.0187 95.2588 10.776C94.6242 10.524 94.0688 10.174 93.5928 9.726C93.1262 9.26867 92.7622 8.732 92.5008 8.116C92.2395 7.5 92.1088 6.828 92.1088 6.1C92.1088 5.372 92.2395 4.7 92.5008 4.084C92.7622 3.468 93.1308 2.936 93.6068 2.488C94.0828 2.03067 94.6382 1.68067 95.2728 1.438C95.9075 1.186 96.6028 1.06 97.3588 1.06C98.1615 1.06 98.8942 1.2 99.5568 1.48C100.22 1.75067 100.78 2.15667 101.237 2.698L100.061 3.804C99.7062 3.42133 99.3095 3.13667 98.8708 2.95C98.4322 2.754 97.9562 2.656 97.4428 2.656C96.9295 2.656 96.4582 2.74 96.0288 2.908C95.6088 3.076 95.2402 3.314 94.9228 3.622C94.6148 3.93 94.3722 4.294 94.1948 4.714C94.0268 5.134 93.9428 5.596 93.9428 6.1C93.9428 6.604 94.0268 7.066 94.1948 7.486C94.3722 7.906 94.6148 8.27 94.9228 8.578C95.2402 8.886 95.6088 9.124 96.0288 9.292C96.4582 9.46 96.9295 9.544 97.4428 9.544C97.9562 9.544 98.4322 9.45067 98.8708 9.264C99.3095 9.068 99.7062 8.774 100.061 8.382L101.237 9.502C100.78 10.034 100.22 10.44 99.5568 10.72C98.8942 11 98.1568 11.14 97.3448 11.14ZM102.731 11V3.524H104.481V8.452L108.611 3.524H110.207V11H108.457V6.072L104.341 11H102.731ZM112.561 11V3.524H114.311V6.562H118.077V3.524H119.827V11H118.077V8.046H114.311V11H112.561ZM122.172 11V3.524H123.922V8.452L128.052 3.524H129.648V11H127.898V6.072L123.782 11H122.172ZM132.002 11V3.524H133.752V8.452L137.882 3.524H139.478V11H137.728V6.072L133.612 11H132.002ZM135.628 2.642C134.882 2.642 134.308 2.46933 133.906 2.124C133.505 1.76933 133.3 1.256 133.29 0.584H134.452C134.462 0.92 134.564 1.186 134.76 1.382C134.966 1.578 135.25 1.676 135.614 1.676C135.969 1.676 136.249 1.578 136.454 1.382C136.669 1.186 136.781 0.92 136.79 0.584H137.98C137.971 1.256 137.761 1.76933 137.35 2.124C136.949 2.46933 136.375 2.642 135.628 2.642ZM144.609 10.986L144.693 9.516C144.759 9.52533 144.819 9.53467 144.875 9.544C144.931 9.55333 144.983 9.558 145.029 9.558C145.319 9.558 145.543 9.46933 145.701 9.292C145.86 9.11467 145.977 8.87667 146.051 8.578C146.135 8.27 146.191 7.92933 146.219 7.556C146.257 7.17333 146.285 6.79067 146.303 6.408L146.429 3.524H152.477V11H150.727V4.532L151.133 5.008H147.577L147.955 4.518L147.857 6.492C147.829 7.15467 147.773 7.77067 147.689 8.34C147.615 8.9 147.493 9.39 147.325 9.81C147.167 10.23 146.943 10.5567 146.653 10.79C146.373 11.0233 146.014 11.14 145.575 11.14C145.435 11.14 145.281 11.126 145.113 11.098C144.955 11.07 144.787 11.0327 144.609 10.986ZM155.506 13.814C155.142 13.814 154.778 13.7533 154.414 13.632C154.05 13.5107 153.747 13.3427 153.504 13.128L154.204 11.84C154.382 11.9987 154.582 12.1247 154.806 12.218C155.03 12.3113 155.259 12.358 155.492 12.358C155.81 12.358 156.066 12.2787 156.262 12.12C156.458 11.9613 156.64 11.6953 156.808 11.322L157.242 10.342L157.382 10.132L160.21 3.524H161.89L158.39 11.602C158.157 12.162 157.896 12.6053 157.606 12.932C157.326 13.2587 157.009 13.4873 156.654 13.618C156.309 13.7487 155.926 13.814 155.506 13.814ZM157.046 11.266L153.672 3.524H155.492L158.236 9.978L157.046 11.266ZM163.106 11V3.524H168.846V5.008H164.45L164.856 4.616V11H163.106Z" fill="#424242"/>
</svg>
